<!-- <svg width="168" height="36" viewBox="0 0 168 36" fill="none" xmlns="http://www.w3.org/2000/svg">
    <path
        d="M2.15199 29V7.18182H16.1293V10.495H6.1044V16.4183H15.1705V19.7315H6.1044V29H2.15199ZM23.4162 7.18182V29H19.5597V7.18182H23.4162ZM34.6262 29.3196C32.9856 29.3196 31.5687 28.9787 30.3755 28.2969C29.1895 27.608 28.2768 26.6349 27.6376 25.3778C26.9984 24.1136 26.6788 22.6257 26.6788 20.9141C26.6788 19.2308 26.9984 17.7536 27.6376 16.4822C28.2839 15.2038 29.1859 14.2095 30.3436 13.4993C31.5012 12.782 32.8613 12.4233 34.4238 12.4233C35.4324 12.4233 36.3841 12.5866 37.2789 12.9134C38.1809 13.233 38.9764 13.7301 39.6653 14.4048C40.3613 15.0795 40.9082 15.9389 41.3059 16.983C41.7037 18.0199 41.9025 19.2557 41.9025 20.6903V21.8729H28.4899V19.2734H38.2058C38.1987 18.5348 38.0389 17.8778 37.7264 17.3026C37.4139 16.7202 36.9771 16.2621 36.416 15.9283C35.862 15.5945 35.2157 15.4276 34.4771 15.4276C33.6887 15.4276 32.9963 15.6193 32.3997 16.0028C31.8031 16.3793 31.3379 16.8764 31.0041 17.4943C30.6774 18.1051 30.5105 18.7763 30.5034 19.5078V21.777C30.5034 22.7287 30.6774 23.5455 31.0254 24.2273C31.3734 24.902 31.8599 25.4205 32.4849 25.7827C33.1099 26.1378 33.8414 26.3153 34.6795 26.3153C35.2406 26.3153 35.7484 26.2372 36.2029 26.081C36.6575 25.9176 37.0517 25.6797 37.3855 25.3672C37.7193 25.0547 37.9714 24.6676 38.1419 24.206L41.7427 24.6108C41.5154 25.5625 41.0822 26.3935 40.443 27.1037C39.8109 27.8068 39.0012 28.3537 38.014 28.7443C37.0268 29.1278 35.8975 29.3196 34.6262 29.3196ZM52.4094 29.3196C50.7688 29.3196 49.3519 28.9787 48.1587 28.2969C46.9727 27.608 46.06 26.6349 45.4208 25.3778C44.7816 24.1136 44.462 22.6257 44.462 20.9141C44.462 19.2308 44.7816 17.7536 45.4208 16.4822C46.0671 15.2038 46.9691 14.2095 48.1268 13.4993C49.2844 12.782 50.6445 12.4233 52.207 12.4233C53.2156 12.4233 54.1673 12.5866 55.0621 12.9134C55.9641 13.233 56.7596 13.7301 57.4485 14.4048C58.1445 15.0795 58.6914 15.9389 59.0891 16.983C59.4869 18.0199 59.6857 19.2557 59.6857 20.6903V21.8729H46.2731V19.2734H55.989C55.9819 18.5348 55.8221 17.8778 55.5096 17.3026C55.1971 16.7202 54.7603 16.2621 54.1992 15.9283C53.6452 15.5945 52.9989 15.4276 52.2603 15.4276C51.4719 15.4276 50.7795 15.6193 50.1829 16.0028C49.5863 16.3793 49.1211 16.8764 48.7873 17.4943C48.4606 18.1051 48.2937 18.7763 48.2866 19.5078V21.777C48.2866 22.7287 48.4606 23.5455 48.8086 24.2273C49.1566 24.902 49.6431 25.4205 50.2681 25.7827C50.8931 26.1378 51.6246 26.3153 52.4627 26.3153C53.0238 26.3153 53.5316 26.2372 53.9862 26.081C54.4407 25.9176 54.8349 25.6797 55.1687 25.3672C55.5025 25.0547 55.7546 24.6676 55.9251 24.206L59.5259 24.6108C59.2987 25.5625 58.8654 26.3935 58.2262 27.1037C57.5941 27.8068 56.7844 28.3537 55.7972 28.7443C54.81 29.1278 53.6808 29.3196 52.4094 29.3196ZM71.1195 12.6364V15.6193H61.7125V12.6364H71.1195ZM64.035 8.71591H67.8915V24.0781C67.8915 24.5966 67.9696 24.9943 68.1259 25.2713C68.2892 25.5412 68.5023 25.7259 68.7651 25.8253C69.0279 25.9247 69.3191 25.9744 69.6387 25.9744C69.8801 25.9744 70.1003 25.9567 70.2992 25.9212C70.5051 25.8857 70.6614 25.8537 70.7679 25.8253L71.4178 28.8402C71.2118 28.9112 70.9171 28.9893 70.5336 29.0746C70.1571 29.1598 69.6955 29.2095 69.1486 29.2237C68.1827 29.2521 67.3127 29.1065 66.5385 28.7869C65.7644 28.4602 65.15 27.956 64.6955 27.2741C64.248 26.5923 64.0279 25.7401 64.035 24.7173V8.71591ZM94.011 18.0909C94.011 20.4418 93.5707 22.4553 92.69 24.1314C91.8164 25.8004 90.6232 27.0788 89.1104 27.9666C87.6048 28.8544 85.8967 29.2983 83.9862 29.2983C82.0756 29.2983 80.364 28.8544 78.8512 27.9666C77.3455 27.0717 76.1523 25.7898 75.2717 24.1207C74.3981 22.4446 73.9613 20.4347 73.9613 18.0909C73.9613 15.7401 74.3981 13.7301 75.2717 12.0611C76.1523 10.3849 77.3455 9.10298 78.8512 8.2152C80.364 7.32741 82.0756 6.88352 83.9862 6.88352C85.8967 6.88352 87.6048 7.32741 89.1104 8.2152C90.6232 9.10298 91.8164 10.3849 92.69 12.0611C93.5707 13.7301 94.011 15.7401 94.011 18.0909ZM90.0373 18.0909C90.0373 16.4361 89.7781 15.0405 89.2596 13.9041C88.7482 12.7607 88.038 11.8977 87.1289 11.3153C86.2198 10.7259 85.1722 10.4311 83.9862 10.4311C82.8001 10.4311 81.7525 10.7259 80.8434 11.3153C79.9343 11.8977 79.2205 12.7607 78.7021 13.9041C78.1907 15.0405 77.935 16.4361 77.935 18.0909C77.935 19.7457 78.1907 21.1449 78.7021 22.2884C79.2205 23.4247 79.9343 24.2876 80.8434 24.8771C81.7525 25.4595 82.8001 25.7507 83.9862 25.7507C85.1722 25.7507 86.2198 25.4595 87.1289 24.8771C88.038 24.2876 88.7482 23.4247 89.2596 22.2884C89.7781 21.1449 90.0373 19.7457 90.0373 18.0909ZM109.605 13.1797C109.506 12.2493 109.086 11.5249 108.348 11.0064C107.616 10.4879 106.665 10.2287 105.493 10.2287C104.669 10.2287 103.962 10.353 103.373 10.6016C102.783 10.8501 102.332 11.1875 102.02 11.6136C101.707 12.0398 101.547 12.5263 101.54 13.0732C101.54 13.5277 101.643 13.9219 101.849 14.2557C102.062 14.5895 102.35 14.8736 102.712 15.108C103.074 15.3352 103.476 15.527 103.916 15.6832C104.356 15.8395 104.8 15.9709 105.248 16.0774L107.293 16.5888C108.117 16.7805 108.909 17.0398 109.669 17.3665C110.436 17.6932 111.121 18.1051 111.725 18.6023C112.336 19.0994 112.819 19.6996 113.174 20.4027C113.529 21.1058 113.706 21.9297 113.706 22.8743C113.706 24.1527 113.38 25.2784 112.726 26.2514C112.073 27.2173 111.128 27.9737 109.893 28.5206C108.664 29.0604 107.176 29.3303 105.429 29.3303C103.731 29.3303 102.258 29.0675 101.008 28.5419C99.7647 28.0163 98.7917 27.2493 98.0886 26.2408C97.3926 25.2322 97.0162 24.0036 96.9593 22.5547H100.848C100.905 23.3146 101.139 23.9467 101.551 24.451C101.963 24.9553 102.499 25.3317 103.16 25.5803C103.827 25.8288 104.573 25.9531 105.397 25.9531C106.256 25.9531 107.009 25.8253 107.655 25.5696C108.309 25.3068 108.82 24.9446 109.189 24.483C109.559 24.0142 109.747 23.4673 109.754 22.8423C109.747 22.2741 109.58 21.8054 109.253 21.4361C108.927 21.0597 108.469 20.7472 107.879 20.4986C107.297 20.2429 106.615 20.0156 105.834 19.8168L103.351 19.1776C101.555 18.7159 100.134 18.0163 99.09 17.0788C98.0531 16.1342 97.5346 14.8807 97.5346 13.3182C97.5346 12.0327 97.8826 10.907 98.5787 9.94105C99.2818 8.97514 100.237 8.22585 101.444 7.69318C102.652 7.15341 104.019 6.88352 105.546 6.88352C107.094 6.88352 108.451 7.15341 109.616 7.69318C110.787 8.22585 111.707 8.96804 112.375 9.91974C113.042 10.8643 113.387 11.951 113.408 13.1797H109.605Z"
        fill="black" />
    <g clip-path="url(#clip0_9_15)">
        <path
            d="M143.274 13.6366H145.831V26.2554H143.148L142.852 25.1259C141.703 26.1295 140.342 26.6313 138.768 26.6313C137.58 26.6483 136.408 26.3492 135.373 25.7647C134.375 25.2005 133.553 24.37 132.999 23.366C132.423 22.3201 132.129 21.1426 132.144 19.9488C132.128 18.7613 132.423 17.5902 132.999 16.5516C133.554 15.552 134.376 14.7264 135.373 14.1672C136.408 13.5861 137.579 13.2885 138.766 13.3043C140.371 13.3043 141.752 13.8179 142.909 14.8449L143.274 13.6366ZM136.579 22.4168C137.232 23.0743 138.051 23.403 139.039 23.403C140.027 23.403 140.847 23.0759 141.499 22.4215C142.15 21.7679 142.476 20.9427 142.475 19.946C142.474 18.9493 142.149 18.1238 141.499 17.4695C140.849 16.8152 140.029 16.4883 139.039 16.489C138.05 16.4896 137.23 16.8183 136.579 17.4752C135.929 18.1339 135.603 18.9585 135.603 19.9488C135.603 20.9392 135.929 21.7618 136.579 22.4168Z"
            fill="#161F41" />
        <path d="M148.172 26.2778V10.3614H151.585V26.2778H148.172Z" fill="#161F41" />
        <path
            d="M160.546 23.2422H162.099V26.2797H159.679C158.294 26.2797 157.2 25.8785 156.397 25.0761C155.594 24.2737 155.193 23.172 155.193 21.7709V16.3965H152.914V15.6665L157.899 10.3614H158.545V13.6589H162.031V16.3965H158.606V21.3143C158.606 21.9307 158.774 22.4053 159.109 22.7382C159.443 23.071 159.923 23.239 160.546 23.2422Z"
            fill="#161F41" />
        <path
            d="M164.187 24.475V24.4285C164.187 23.9502 164.377 23.4915 164.716 23.1533C165.054 22.815 165.513 22.625 165.992 22.625C166.47 22.625 166.929 22.815 167.268 23.1533C167.606 23.4915 167.796 23.9502 167.796 24.4285V24.475C167.796 24.9534 167.606 25.4121 167.268 25.7503C166.929 26.0885 166.47 26.2786 165.992 26.2786C165.513 26.2786 165.054 26.0885 164.716 25.7503C164.377 25.4121 164.187 24.9534 164.187 24.475Z"
            fill="#FFCB05" />
    </g>
    <path opacity="0.32" d="M122.5 7L122.5 30" stroke="black" stroke-linecap="round" />
    <defs>
        <clipPath id="clip0_9_15">
            <rect width="35.6507" height="16.2774" fill="white" transform="translate(132.144 10.3613)" />
        </clipPath>
    </defs>
</svg> -->
<svg width="165" height="64" viewBox="0 0 165 64" fill="none" xmlns="http://www.w3.org/2000/svg">
    <g clip-path="url(#clip0_1080_29273)">
        <path
            d="M8.55048 49.4657C8.55048 49.9792 8.13425 50.3954 7.62079 50.3954H5.75111C5.23766 50.3954 4.82142 49.9792 4.82142 49.4657V30.5915C4.82142 30.078 4.40518 29.6618 3.89173 29.6618H1.77344C1.25999 29.6618 0.84375 29.2456 0.84375 28.7321V27.3099C0.84375 26.7965 1.25999 26.3802 1.77344 26.3802H3.89173C4.40518 26.3802 4.82142 25.964 4.82142 25.4505V24.5406C4.82142 19.5685 7.65551 16.7344 11.7823 16.7344C12.9018 16.7344 13.9014 16.8842 14.7579 17.2072C15.1779 17.3656 15.3586 17.8392 15.2166 18.2651L14.8789 19.2783C14.6923 19.8381 14.0346 20.0722 13.4607 19.9349C13.1388 19.8579 12.7844 19.8171 12.379 19.8171C9.89295 19.8171 8.55048 21.4579 8.55048 24.5406V25.4505C8.55048 25.964 8.96672 26.3802 9.48018 26.3802H12.4934C13.0069 26.3802 13.4231 26.7965 13.4231 27.3099V28.7321C13.4231 29.2456 13.0069 29.6618 12.4934 29.6618H9.48018C8.96672 29.6618 8.55048 30.078 8.55048 30.5915V49.4657ZM21.6271 49.4657C21.6271 49.9792 21.2108 50.3954 20.6974 50.3954H18.8277C18.3142 50.3954 17.898 49.9792 17.898 49.4657V18.1613C17.898 17.6478 18.3142 17.2316 18.8277 17.2316H20.6974C21.2108 17.2316 21.6271 17.6478 21.6271 18.1613V49.4657Z"
            fill="#05487D" />
        <path
            d="M39.9636 50.992C32.8038 50.992 27.6825 45.8708 27.6825 38.363C27.6825 31.402 32.6546 25.7836 39.5161 25.7836C46.7753 25.7836 51.0513 31.4518 51.0513 38.6613V38.6763C51.0513 39.1897 50.6351 39.606 50.1216 39.606H32.6532C32.1157 39.606 31.6861 40.0621 31.772 40.5927C32.4312 44.6669 35.4719 47.9094 40.2619 47.9094C42.6786 47.9094 45.0578 47.0853 46.9119 45.5673C47.3562 45.2035 48.0294 45.2477 48.3693 45.7104L49.0324 46.6129C49.3064 46.9859 49.2666 47.5066 48.9169 47.8097C46.5582 49.8536 43.535 50.992 39.9636 50.992ZM46.4291 36.8216C46.9477 36.8216 47.3706 36.3963 47.3053 35.8819C46.8829 32.5538 44.4591 28.8663 39.4664 28.8663C34.7978 28.8663 32.2779 32.461 31.7182 35.8462C31.6312 36.3725 32.0591 36.8216 32.5925 36.8216H46.4291Z"
            fill="#05487D" />
        <path
            d="M67.9801 50.992C60.8203 50.992 55.6991 45.8708 55.6991 38.363C55.6991 31.402 60.6712 25.7836 67.5326 25.7836C74.7919 25.7836 79.0679 31.4518 79.0679 38.6613V38.6763C79.0679 39.1897 78.6516 39.606 78.1382 39.606H60.6698C60.1322 39.606 59.7027 40.0621 59.7885 40.5927C60.4477 44.6669 63.4885 47.9094 68.2785 47.9094C70.6951 47.9094 73.0744 47.0853 74.9285 45.5673C75.3728 45.2035 76.0459 45.2477 76.3859 45.7104L77.0489 46.6129C77.3229 46.9859 77.2832 47.5066 76.9334 47.8097C74.5748 49.8536 71.5515 50.992 67.9801 50.992ZM74.4457 36.8216C74.9642 36.8216 75.3871 36.3963 75.3218 35.8819C74.8995 32.5538 72.4756 28.8663 67.4829 28.8663C62.8144 28.8663 60.2944 32.461 59.7347 35.8462C59.6477 36.3725 60.0756 36.8216 60.609 36.8216H74.4457Z"
            fill="#05487D" />
        <path
            d="M91.2235 50.992C87.6436 50.992 85.8536 48.9535 85.8536 45.3736V30.5915C85.8536 30.078 85.4374 29.6618 84.9239 29.6618H82.8056C82.2922 29.6618 81.8759 29.2456 81.8759 28.7321V27.3099C81.8759 26.7965 82.2922 26.3802 82.8056 26.3802H84.9239C85.4374 26.3802 85.8536 25.964 85.8536 25.4505V20.7468C85.8536 20.2333 86.2698 19.8171 86.7833 19.8171H88.7027C89.2162 19.8171 89.6324 20.2333 89.6324 20.7468V25.4505C89.6324 25.964 90.0486 26.3802 90.5621 26.3802H93.5754C94.0888 26.3802 94.505 26.7965 94.505 27.3099V28.7321C94.505 29.2456 94.0888 29.6618 93.5754 29.6618H90.5621C90.0486 29.6618 89.6324 30.078 89.6324 30.5915V44.5781C89.6324 46.368 90.4279 47.6608 92.019 47.6608C92.481 47.6608 92.9164 47.5721 93.3026 47.4284C93.9508 47.1874 94.848 47.3764 95.097 48.0215L95.4243 48.8695C95.56 49.2211 95.4746 49.6265 95.1728 49.8523C94.2628 50.5327 93.0258 50.992 91.2235 50.992Z"
            fill="#05487D" />
        <path
            d="M151.651 52.1835C146.539 52.1835 142.638 50.2564 140.026 47.4718C139.73 47.1565 139.718 46.6754 139.976 46.3287L141.191 44.6971C141.552 44.2124 142.272 44.1964 142.696 44.6277C144.773 46.7425 147.88 48.5094 151.793 48.5094C157.425 48.5094 159.224 45.3319 159.224 42.7502C159.224 34.2106 140.529 38.9769 140.529 27.1605C140.529 21.6991 145.167 17.9258 151.415 17.9258C155.879 17.9258 159.435 19.4412 162.044 22.0273C162.365 22.3455 162.381 22.8528 162.103 23.209L160.92 24.7232C160.557 25.187 159.861 25.199 159.436 24.792C157.149 22.6023 154.173 21.6494 151.083 21.6494C147.344 21.6494 144.599 23.7843 144.599 26.9122C144.599 34.3595 163.294 30.0897 163.294 42.4523C163.294 47.2186 160.17 52.1835 151.651 52.1835Z"
            fill="#05487D" />
    </g>
    <ellipse opacity="0.2" cx="122.633" cy="49.2735" rx="8.36723" ry="4.64846" fill="#03365F" />
    <ellipse cx="122.633" cy="48.7149" rx="4.64846" ry="2.78908" fill="#03365F" />
    <path
        d="M119.313 23.857L108.984 25.0846C112.913 14.5525 122.276 14.1772 126.467 15.3061C136.898 18.4894 138.094 27.9773 137.389 32.3233C134.95 42.6182 126.636 47.8165 122.784 49.1288C113.844 45.5052 109.662 37.4877 108.688 33.9319L119.355 35.3288C120.033 35.7352 120.851 36.0061 121.176 36.0908C121.881 36.2601 123.606 36.4802 124.859 36.0061C126.112 35.532 127.046 34.849 127.356 34.5668C128.982 33.28 129.529 30.8981 129.6 29.8681C129.741 28.6545 129.312 25.7534 126.467 23.857C123.622 21.9605 120.513 23.0668 119.313 23.857Z"
        fill="#05487D" />
    <path d="M116.451 27.2372C116.748 26.3004 117.383 25.5808 117.51 25.3691L102.418 27.2372L116.451 27.2372Z"
        fill="#F6E859" />
    <path d="M116.433 31.9708C116.642 32.5019 117.352 33.664 117.479 33.791L102.645 31.8274L116.433 31.9708Z"
        fill="#F6E859" />
    <path
        d="M116.104 28.4701L116.112 28.416L99.3911 29.5003L116.053 30.4056C115.97 29.4106 115.984 29.3089 116.104 28.4701Z"
        fill="#F6E859" />
    <defs>
        <clipPath id="clip0_1080_29273">
            <rect width="163.626" height="35.3283" fill="white" transform="translate(0.84375 16.7344)" />
        </clipPath>
    </defs>
</svg>