<svg width="168" height="36" viewBox="0 0 168 36" fill="none" xmlns="http://www.w3.org/2000/svg">
    <path
        d="M2.15199 29V7.18182H16.1293V10.495H6.1044V16.4183H15.1705V19.7315H6.1044V29H2.15199ZM23.4162 7.18182V29H19.5597V7.18182H23.4162ZM34.6262 29.3196C32.9856 29.3196 31.5687 28.9787 30.3755 28.2969C29.1895 27.608 28.2768 26.6349 27.6376 25.3778C26.9984 24.1136 26.6788 22.6257 26.6788 20.9141C26.6788 19.2308 26.9984 17.7536 27.6376 16.4822C28.2839 15.2038 29.1859 14.2095 30.3436 13.4993C31.5012 12.782 32.8613 12.4233 34.4238 12.4233C35.4324 12.4233 36.3841 12.5866 37.2789 12.9134C38.1809 13.233 38.9764 13.7301 39.6653 14.4048C40.3613 15.0795 40.9082 15.9389 41.3059 16.983C41.7037 18.0199 41.9025 19.2557 41.9025 20.6903V21.8729H28.4899V19.2734H38.2058C38.1987 18.5348 38.0389 17.8778 37.7264 17.3026C37.4139 16.7202 36.9771 16.2621 36.416 15.9283C35.862 15.5945 35.2157 15.4276 34.4771 15.4276C33.6887 15.4276 32.9963 15.6193 32.3997 16.0028C31.8031 16.3793 31.3379 16.8764 31.0041 17.4943C30.6774 18.1051 30.5105 18.7763 30.5034 19.5078V21.777C30.5034 22.7287 30.6774 23.5455 31.0254 24.2273C31.3734 24.902 31.8599 25.4205 32.4849 25.7827C33.1099 26.1378 33.8414 26.3153 34.6795 26.3153C35.2406 26.3153 35.7484 26.2372 36.2029 26.081C36.6575 25.9176 37.0517 25.6797 37.3855 25.3672C37.7193 25.0547 37.9714 24.6676 38.1419 24.206L41.7427 24.6108C41.5154 25.5625 41.0822 26.3935 40.443 27.1037C39.8109 27.8068 39.0012 28.3537 38.014 28.7443C37.0268 29.1278 35.8975 29.3196 34.6262 29.3196ZM52.4094 29.3196C50.7688 29.3196 49.3519 28.9787 48.1587 28.2969C46.9727 27.608 46.06 26.6349 45.4208 25.3778C44.7816 24.1136 44.462 22.6257 44.462 20.9141C44.462 19.2308 44.7816 17.7536 45.4208 16.4822C46.0671 15.2038 46.9691 14.2095 48.1268 13.4993C49.2844 12.782 50.6445 12.4233 52.207 12.4233C53.2156 12.4233 54.1673 12.5866 55.0621 12.9134C55.9641 13.233 56.7596 13.7301 57.4485 14.4048C58.1445 15.0795 58.6914 15.9389 59.0891 16.983C59.4869 18.0199 59.6857 19.2557 59.6857 20.6903V21.8729H46.2731V19.2734H55.989C55.9819 18.5348 55.8221 17.8778 55.5096 17.3026C55.1971 16.7202 54.7603 16.2621 54.1992 15.9283C53.6452 15.5945 52.9989 15.4276 52.2603 15.4276C51.4719 15.4276 50.7795 15.6193 50.1829 16.0028C49.5863 16.3793 49.1211 16.8764 48.7873 17.4943C48.4606 18.1051 48.2937 18.7763 48.2866 19.5078V21.777C48.2866 22.7287 48.4606 23.5455 48.8086 24.2273C49.1566 24.902 49.6431 25.4205 50.2681 25.7827C50.8931 26.1378 51.6246 26.3153 52.4627 26.3153C53.0238 26.3153 53.5316 26.2372 53.9862 26.081C54.4407 25.9176 54.8349 25.6797 55.1687 25.3672C55.5025 25.0547 55.7546 24.6676 55.9251 24.206L59.5259 24.6108C59.2987 25.5625 58.8654 26.3935 58.2262 27.1037C57.5941 27.8068 56.7844 28.3537 55.7972 28.7443C54.81 29.1278 53.6808 29.3196 52.4094 29.3196ZM71.1195 12.6364V15.6193H61.7125V12.6364H71.1195ZM64.035 8.71591H67.8915V24.0781C67.8915 24.5966 67.9696 24.9943 68.1259 25.2713C68.2892 25.5412 68.5023 25.7259 68.7651 25.8253C69.0279 25.9247 69.3191 25.9744 69.6387 25.9744C69.8801 25.9744 70.1003 25.9567 70.2992 25.9212C70.5051 25.8857 70.6614 25.8537 70.7679 25.8253L71.4178 28.8402C71.2118 28.9112 70.9171 28.9893 70.5336 29.0746C70.1571 29.1598 69.6955 29.2095 69.1486 29.2237C68.1827 29.2521 67.3127 29.1065 66.5385 28.7869C65.7644 28.4602 65.15 27.956 64.6955 27.2741C64.248 26.5923 64.0279 25.7401 64.035 24.7173V8.71591ZM94.011 18.0909C94.011 20.4418 93.5707 22.4553 92.69 24.1314C91.8164 25.8004 90.6232 27.0788 89.1104 27.9666C87.6048 28.8544 85.8967 29.2983 83.9862 29.2983C82.0756 29.2983 80.364 28.8544 78.8512 27.9666C77.3455 27.0717 76.1523 25.7898 75.2717 24.1207C74.3981 22.4446 73.9613 20.4347 73.9613 18.0909C73.9613 15.7401 74.3981 13.7301 75.2717 12.0611C76.1523 10.3849 77.3455 9.10298 78.8512 8.2152C80.364 7.32741 82.0756 6.88352 83.9862 6.88352C85.8967 6.88352 87.6048 7.32741 89.1104 8.2152C90.6232 9.10298 91.8164 10.3849 92.69 12.0611C93.5707 13.7301 94.011 15.7401 94.011 18.0909ZM90.0373 18.0909C90.0373 16.4361 89.7781 15.0405 89.2596 13.9041C88.7482 12.7607 88.038 11.8977 87.1289 11.3153C86.2198 10.7259 85.1722 10.4311 83.9862 10.4311C82.8001 10.4311 81.7525 10.7259 80.8434 11.3153C79.9343 11.8977 79.2205 12.7607 78.7021 13.9041C78.1907 15.0405 77.935 16.4361 77.935 18.0909C77.935 19.7457 78.1907 21.1449 78.7021 22.2884C79.2205 23.4247 79.9343 24.2876 80.8434 24.8771C81.7525 25.4595 82.8001 25.7507 83.9862 25.7507C85.1722 25.7507 86.2198 25.4595 87.1289 24.8771C88.038 24.2876 88.7482 23.4247 89.2596 22.2884C89.7781 21.1449 90.0373 19.7457 90.0373 18.0909ZM109.605 13.1797C109.506 12.2493 109.086 11.5249 108.348 11.0064C107.616 10.4879 106.665 10.2287 105.493 10.2287C104.669 10.2287 103.962 10.353 103.373 10.6016C102.783 10.8501 102.332 11.1875 102.02 11.6136C101.707 12.0398 101.547 12.5263 101.54 13.0732C101.54 13.5277 101.643 13.9219 101.849 14.2557C102.062 14.5895 102.35 14.8736 102.712 15.108C103.074 15.3352 103.476 15.527 103.916 15.6832C104.356 15.8395 104.8 15.9709 105.248 16.0774L107.293 16.5888C108.117 16.7805 108.909 17.0398 109.669 17.3665C110.436 17.6932 111.121 18.1051 111.725 18.6023C112.336 19.0994 112.819 19.6996 113.174 20.4027C113.529 21.1058 113.706 21.9297 113.706 22.8743C113.706 24.1527 113.38 25.2784 112.726 26.2514C112.073 27.2173 111.128 27.9737 109.893 28.5206C108.664 29.0604 107.176 29.3303 105.429 29.3303C103.731 29.3303 102.258 29.0675 101.008 28.5419C99.7647 28.0163 98.7917 27.2493 98.0886 26.2408C97.3926 25.2322 97.0162 24.0036 96.9593 22.5547H100.848C100.905 23.3146 101.139 23.9467 101.551 24.451C101.963 24.9553 102.499 25.3317 103.16 25.5803C103.827 25.8288 104.573 25.9531 105.397 25.9531C106.256 25.9531 107.009 25.8253 107.655 25.5696C108.309 25.3068 108.82 24.9446 109.189 24.483C109.559 24.0142 109.747 23.4673 109.754 22.8423C109.747 22.2741 109.58 21.8054 109.253 21.4361C108.927 21.0597 108.469 20.7472 107.879 20.4986C107.297 20.2429 106.615 20.0156 105.834 19.8168L103.351 19.1776C101.555 18.7159 100.134 18.0163 99.09 17.0788C98.0531 16.1342 97.5346 14.8807 97.5346 13.3182C97.5346 12.0327 97.8826 10.907 98.5787 9.94105C99.2818 8.97514 100.237 8.22585 101.444 7.69318C102.652 7.15341 104.019 6.88352 105.546 6.88352C107.094 6.88352 108.451 7.15341 109.616 7.69318C110.787 8.22585 111.707 8.96804 112.375 9.91974C113.042 10.8643 113.387 11.951 113.408 13.1797H109.605Z"
        fill="black" />
    <g clip-path="url(#clip0_9_15)">
        <path
            d="M143.274 13.6366H145.831V26.2554H143.148L142.852 25.1259C141.703 26.1295 140.342 26.6313 138.768 26.6313C137.58 26.6483 136.408 26.3492 135.373 25.7647C134.375 25.2005 133.553 24.37 132.999 23.366C132.423 22.3201 132.129 21.1426 132.144 19.9488C132.128 18.7613 132.423 17.5902 132.999 16.5516C133.554 15.552 134.376 14.7264 135.373 14.1672C136.408 13.5861 137.579 13.2885 138.766 13.3043C140.371 13.3043 141.752 13.8179 142.909 14.8449L143.274 13.6366ZM136.579 22.4168C137.232 23.0743 138.051 23.403 139.039 23.403C140.027 23.403 140.847 23.0759 141.499 22.4215C142.15 21.7679 142.476 20.9427 142.475 19.946C142.474 18.9493 142.149 18.1238 141.499 17.4695C140.849 16.8152 140.029 16.4883 139.039 16.489C138.05 16.4896 137.23 16.8183 136.579 17.4752C135.929 18.1339 135.603 18.9585 135.603 19.9488C135.603 20.9392 135.929 21.7618 136.579 22.4168Z"
            fill="#161F41" />
        <path d="M148.172 26.2778V10.3614H151.585V26.2778H148.172Z" fill="#161F41" />
        <path
            d="M160.546 23.2422H162.099V26.2797H159.679C158.294 26.2797 157.2 25.8785 156.397 25.0761C155.594 24.2737 155.193 23.172 155.193 21.7709V16.3965H152.914V15.6665L157.899 10.3614H158.545V13.6589H162.031V16.3965H158.606V21.3143C158.606 21.9307 158.774 22.4053 159.109 22.7382C159.443 23.071 159.923 23.239 160.546 23.2422Z"
            fill="#161F41" />
        <path
            d="M164.187 24.475V24.4285C164.187 23.9502 164.377 23.4915 164.716 23.1533C165.054 22.815 165.513 22.625 165.992 22.625C166.47 22.625 166.929 22.815 167.268 23.1533C167.606 23.4915 167.796 23.9502 167.796 24.4285V24.475C167.796 24.9534 167.606 25.4121 167.268 25.7503C166.929 26.0885 166.47 26.2786 165.992 26.2786C165.513 26.2786 165.054 26.0885 164.716 25.7503C164.377 25.4121 164.187 24.9534 164.187 24.475Z"
            fill="#FFCB05" />
    </g>
    <path opacity="0.32" d="M122.5 7L122.5 30" stroke="black" stroke-linecap="round" />
    <defs>
        <clipPath id="clip0_9_15">
            <rect width="35.6507" height="16.2774" fill="white" transform="translate(132.144 10.3613)" />
        </clipPath>
    </defs>
</svg>