<svg width="39" height="64" viewBox="0 0 39 64" fill="none" xmlns="http://www.w3.org/2000/svg">
    <ellipse opacity="0.2" cx="23.6329" cy="49.2735" rx="8.36723" ry="4.64846" fill="#03365F" />
    <ellipse cx="23.6328" cy="48.7149" rx="4.64846" ry="2.78908" fill="#03365F" />
    <path
        d="M20.3126 23.857L9.98382 25.0846C13.9122 14.5525 23.2758 14.1772 27.4666 15.3061C37.897 18.4894 39.0936 27.9773 38.3881 32.3233C35.9498 42.6182 27.6359 47.8165 23.7838 49.1288C14.8434 45.5052 10.6611 37.4877 9.6875 33.9319L20.355 35.3288C21.0323 35.7352 21.8507 36.0061 22.1752 36.0908C22.8807 36.2601 24.605 36.4802 25.858 36.0061C27.111 35.532 28.0451 34.849 28.3556 34.5668C29.9811 33.28 30.5286 30.8981 30.5991 29.8681C30.7402 28.6545 30.3113 25.7534 27.4666 23.857C24.622 21.9605 21.512 23.0668 20.3126 23.857Z"
        fill="#05487D" />
    <path d="M17.4514 27.2372C17.7477 26.3004 18.3827 25.5808 18.5097 25.3691L3.41797 27.2372L17.4514 27.2372Z"
        fill="#F6E859" />
    <path d="M17.4327 31.9708C17.6419 32.5019 18.3516 33.664 18.4786 33.791L3.64453 31.8274L17.4327 31.9708Z"
        fill="#F6E859" />
    <path
        d="M17.1037 28.4701L17.1115 28.416L0.390625 29.5003L17.0522 30.4056C16.9693 29.4106 16.9838 29.3089 17.1037 28.4701Z"
        fill="#F6E859" />
</svg>